<?xml version="1.0" encoding="UTF-8"?>
<svg id="Layer_2" data-name="Layer 2" xmlns="http://www.w3.org/2000/svg" viewBox="0 0 371.24 199.66">
  <defs>
    <style>
      .cls-1 {
        font-family: MyriadPro-Regular, 'Myriad Pro';
        font-size: 25.68px;
      }

      .cls-1, .cls-2 {
        fill: #ffffff;
      }

      .cls-3 {
        fill: #7ec8f0;
      }

      .cls-4 {
        letter-spacing: 0em;
      }

      .cls-5 {
        letter-spacing: 0em;
      }
    </style>
  </defs>
  <g id="Layer_1-2" data-name="Layer 1">
    <g>
      <path class="cls-3" d="M178.18,24.35c-5.2,6.56-17.42,18.92-25.68,20.09-30.31,4.31-35.27-37.48-9.34-43.59,18.86-4.44,25.25,9.39,37.61,19.71,0,0-2.15,3.22-2.6,3.78Z"/>
      <g>
        <path class="cls-2" d="M152.38,55.82L203.28,5.74c17.03-13.77,41.36-.98,38.53,21.14-1.45,11.29-17.1,21.31-24.34,29.35l-15.65.02-4.43-9.11-2.57,10.73c-1.53-2.34-4.1-1.64-6.67-1.3l-1.76,6.92-3.08-24.03c-2.38-.36-2.09,14.69-3.03,15.89s-4.37-.6-4.39,2.01c-4.06-2.31-3.95-1.88-6.38-6.63-1.1.4-2.02,5.1-2.3,5.1h-14.83Z"/>
        <path class="cls-2" d="M168.24,57.87c.16-.1.75-3.56,1.28-3.59,1.46,5.27,4.09,1.56,6.14,6.13,1.57-3.61,2.47-2.22,5.91-2.77l1.49-8.47,2.06,21.71,1.27.79,2.88-13.74c3.57-.77,4.11.64,5.3,3.51l3.58-9.21,1.79,5.63h16.36c-8.69,6.14-18.57,21.29-26.85,26.59-4.22,2.7-6.91,2.51-11-.25-8.3-5.57-18.33-19.7-26.58-26.34,2.57-.56,15.07.74,16.36,0Z"/>
      </g>
      <path class="cls-3" d="M214.59,104.89c13.89,1.88,18.05,19.91,7.52,27.58-.52.38-.49,1.15.05,1.49,9.99,6.2,8.49,28.71-1.78,28.71-12.63,0-42.44-.12-46.52-.12v-56.77c0-.5.41-.91.91-.91h39.67s.1,0,.15,0ZM207.35,117.15c-4.81-.86-11.84.5-17.15.1-.54-.04-1,.37-1,.91v8.59c0,.24.1.47.27.64l.23.23c.17.17.4.27.64.27h17.01c5.51,0,7.5-9.4,0-10.74ZM189.2,149.98c0,.5.41.91.91.91h19.8c4.6,0,5.1-10.74-.51-10.74h-19.29c-.5,0-.91.41-.91.91v8.91Z"/>
      <path class="cls-3" d="M121.96,103.88c20.33,2.64,23.82,31.49,5.34,39.13l12.3,19.66h-17.64l-18.14-28.9c.07-2.06,19.23,3.6,19.46-8.68.08-4.41-3.33-8.94-7.97-8.94h-16.62v46.52h-10.48c-1.95,0-4.89-3.3-4.8-5.43l-.57-53.37h39.12Z"/>
      <path class="cls-3" d="M286.87,116.66l-34.77.26v9.46h27.1l-.51,12.78h-26.59v9.97l30.94.77c1.29,0,4.86,3,4.86,4.35v8.44h-45.25c-2,0-6.39-3.77-6.39-5.88v-53.43l46.28.51c1.34,0,4.35,3.56,4.35,4.86v7.92Z"/>
      <path class="cls-3" d="M345.16,103.37v7.92c0,9.05-28.8,2.52-34.22,5.67-8.38,14,16.45,8.3,24.69,9.99,19.07,3.91,14.08,35.72-.95,35.72h-39.12c-3.41-20.23,20.71-10.58,32.43-12.82,4.38-.84,4.46-4.26,3.49-8.01-1.81-4.69-20.93-1.95-26.82-3.35-11.26-2.67-13.51-16.47-9.86-25.93,5.97-15.49,33.19-9.2,50.37-9.2Z"/>
      <path class="cls-3" d="M15.85,103.88l-.51,42.18c0,8.87,33.75-1.58,33.75,8.69v7.92H12.02c-5.95,0-12.02-7.32-12.02-13.04v-45.76h15.85Z"/>
      <path class="cls-3" d="M371.24,162.68h-10.48c-1.58,0-5.37-3.34-5.37-4.86v-53.94h10.99c2.14,0,4.86,4.44,4.86,6.39v52.4Z"/>
      <path class="cls-3" d="M73.12,162.68h-10.48c-1.9,0-5.37-4.56-5.37-6.39v-52.4h11.51c1.42,0,4.35,4.5,4.35,5.88v52.92Z"/>
      <path class="cls-3" d="M164.14,162.68h-10.48c-1.21,0-4.86-3.64-4.86-4.86v-53.94h10.99c1.13,0,4.35,3.21,4.35,4.35v54.45Z"/>
      <text class="cls-1" transform="translate(50.63 193.24)"><tspan x="0" y="0">ambulanca shëndetësore</tspan></text>
    </g>
  </g>
</svg>
